<?xml version="1.0" standalone="no"?>
<!DOCTYPE svg PUBLIC "-//W3C//DTD SVG 20010904//EN"
 "http://www.w3.org/TR/2001/REC-SVG-20010904/DTD/svg10.dtd">
<svg version="1.0" xmlns="http://www.w3.org/2000/svg"
 width="259.000000pt" height="194.000000pt" viewBox="0 0 259.000000 194.000000"
 preserveAspectRatio="xMidYMid meet">
<metadata>
Created by potrace 1.16, written by Peter Selinger 2001-2019
</metadata>
<g transform="translate(0.000000,194.000000) scale(0.100000,-0.100000)"
fill="#000000" stroke="none">
<path d="M1223 1331 c-27 -12 -46 -47 -40 -72 3 -10 0 -20 -6 -22 -6 -2 -12
-48 -15 -108 -4 -100 -3 -106 20 -133 15 -18 39 -31 68 -37 64 -12 218 -11
242 2 32 17 49 74 55 185 6 107 -2 146 -34 158 -9 4 -11 1 -7 -5 4 -7 -7 -2
-23 11 -26 19 -47 23 -134 26 -57 2 -114 0 -126 -5z m257 -61 c14 -8 27 -14
30 -13 8 2 -9 -175 -21 -220 l-10 -39 -122 5 c-148 5 -177 12 -177 40 0 6 6 3
13 -6 10 -15 12 -7 12 45 0 35 4 92 8 127 7 56 6 63 -8 57 -10 -3 -14 -2 -10
5 4 6 13 8 21 5 7 -3 16 0 20 6 10 15 212 5 244 -12z"/>
<path d="M1070 781 l0 -108 64 -1 c75 -1 100 17 100 73 0 49 -28 75 -79 75
l-41 0 4 35 c4 32 2 35 -22 35 l-26 0 0 -109z"/>
<path d="M836 807 c-28 -20 -31 -78 -6 -109 19 -25 27 -27 81 -27 l59 1 0 73
0 73 -58 1 c-33 0 -66 -5 -76 -12z"/>
<path d="M1420 743 c0 -71 1 -74 23 -71 18 2 22 9 23 44 1 47 9 64 29 64 17 0
25 -22 25 -71 0 -32 3 -39 19 -39 17 0 20 8 23 53 3 44 6 52 23 52 17 0 20 -8
23 -52 3 -45 6 -53 23 -53 16 0 19 7 19 56 0 30 -5 64 -10 75 -12 21 -59 26
-78 7 -8 -8 -15 -8 -24 0 -8 6 -37 11 -66 10 l-52 0 0 -75z"/>
</g>
</svg>
