<?xml version="1.0" standalone="no"?>
<!DOCTYPE svg PUBLIC "-//W3C//DTD SVG 20010904//EN"
 "http://www.w3.org/TR/2001/REC-SVG-20010904/DTD/svg10.dtd">
<svg version="1.0" xmlns="http://www.w3.org/2000/svg"
 width="237.000000pt" height="102.000000pt" viewBox="0 0 237.000000 102.000000"
 preserveAspectRatio="xMidYMid meet">
<metadata>
Created by potrace 1.16, written by Peter Selinger 2001-2019
</metadata>
<g transform="translate(0.000000,102.000000) scale(0.100000,-0.100000)"
fill="#000000" stroke="none">
<path d="M0 510 l0 -510 1185 0 1185 0 0 510 0 510 -1185 0 -1185 0 0 -510z
m2320 0 l0 -460 -1135 0 -1135 0 0 460 0 460 1135 0 1135 0 0 -460z"/>
<path d="M295 805 l-25 -24 0 -296 0 -295 45 0 45 0 0 120 0 120 45 0 45 0 0
-120 0 -120 45 0 45 0 0 286 c0 359 2 353 -138 354 -75 0 -85 -2 -107 -25z
m143 -67 c8 -8 12 -49 12 -120 l0 -108 -45 0 -45 0 0 114 c0 82 4 116 13 119
22 10 53 7 65 -5z"/>
<path d="M660 510 l0 -320 105 0 105 0 0 45 0 45 -60 0 -60 0 0 275 0 275 -45
0 -45 0 0 -320z"/>
<path d="M960 509 l0 -321 111 4 c107 3 112 4 135 31 22 26 24 36 24 143 0
101 -2 116 -20 134 -11 11 -25 20 -31 20 -7 0 0 9 15 21 25 20 26 24 26 125 0
103 -1 106 -29 135 -29 28 -32 29 -130 29 l-101 0 0 -321z m169 -43 c8 -9 11
-45 9 -98 l-3 -83 -42 -3 -43 -3 0 100 0 101 34 0 c18 0 39 -6 45 -14z"/>
<path d="M1340 568 c0 -271 6 -322 40 -353 30 -27 144 -32 190 -8 55 28 59 53
59 356 l1 267 -50 0 -50 0 -2 -272 -3 -273 -40 0 -40 0 -3 273 -2 272 -50 0
-50 0 0 -262z"/>
<path d="M1750 510 l0 -320 47 0 46 0 -5 183 c-3 100 -4 175 -1 167 2 -8 14
-62 26 -120 l22 -105 37 -3 36 -3 17 78 c31 145 33 144 34 -29 l1 -168 45 0
45 0 0 321 0 320 -52 -3 -52 -3 -35 -167 c-19 -92 -36 -166 -38 -165 -2 3 -73
324 -73 333 0 2 -22 4 -50 4 l-50 0 0 -320z"/>
</g>
</svg>
