<?xml version="1.0" standalone="no"?>
<!DOCTYPE svg PUBLIC "-//W3C//DTD SVG 20010904//EN"
 "http://www.w3.org/TR/2001/REC-SVG-20010904/DTD/svg10.dtd">
<svg version="1.0" xmlns="http://www.w3.org/2000/svg"
 width="191.000000pt" height="191.000000pt" viewBox="0 0 191.000000 191.000000"
 preserveAspectRatio="xMidYMid meet">
<metadata>
Created by potrace 1.16, written by Peter Selinger 2001-2019
</metadata>
<g transform="translate(0.000000,191.000000) scale(0.100000,-0.100000)"
fill="#000000" stroke="none">
<path d="M590 1341 l0 -179 -71 0 c-39 0 -75 -4 -80 -9 -6 -6 -8 -54 -7 -109
l3 -99 33 -3 c26 -3 32 -7 32 -28 0 -22 -4 -24 -50 -24 -43 0 -50 3 -50 20 0
17 -7 20 -50 20 -39 0 -50 -3 -50 -16 0 -9 -13 -29 -30 -44 l-30 -28 0 -201
c0 -201 0 -202 25 -226 l24 -25 321 0 321 0 23 25 23 25 347 0 346 0 0 485 0
485 -149 0 -150 0 -3 53 -3 52 -387 3 -388 2 0 -179z m760 119 l0 -50 -45 0
c-38 0 -45 3 -45 20 0 11 -7 20 -15 20 -8 0 -133 0 -277 1 l-263 0 -3 -145 -3
-145 -47 2 -47 3 -3 167 -2 167 372 3 c205 1 374 3 376 5 1 1 2 -20 2 -48z
m-110 -35 c0 -13 -26 -15 -175 -15 l-175 0 0 -140 0 -140 -54 0 c-37 0 -56 4
-59 14 -3 8 -18 16 -34 18 l-28 3 -3 138 -3 137 266 0 c229 0 265 -2 265 -15z
m278 -35 l142 0 -2 -467 -3 -468 -342 -3 -343 -2 0 45 0 45 125 0 125 0 0 115
0 115 -125 0 c-104 0 -125 2 -125 15 0 13 21 15 125 15 l126 0 -3 116 -3 116
-120 -1 c-66 -1 -121 -4 -124 -6 -2 -3 -3 -40 -2 -84 l2 -80 -30 15 -29 15 -1
249 -2 250 168 2 c92 2 197 2 233 1 36 -1 129 -2 208 -3z m-778 -330 c0 -36
-4 -60 -11 -60 -5 0 -8 -3 -5 -8 2 -4 -22 -9 -54 -10 -77 -4 -132 23 -160 78
-11 21 -20 44 -20 50 0 6 45 10 125 10 l125 0 0 -60z m35 -295 c60 -45 83
-134 48 -185 -26 -37 -46 -51 -70 -47 -12 2 -20 0 -17 -4 3 -5 -11 -9 -30 -9
-20 0 -36 4 -36 9 0 5 -13 11 -29 14 -34 7 -71 73 -71 126 0 48 47 111 88 117
8 2 17 5 20 9 12 12 64 -4 97 -30z m-317 -66 c-6 -17 -8 -53 -5 -80 l6 -49
-99 0 -100 0 0 80 0 80 104 0 105 0 -11 -31z"/>
<path d="M968 1194 c-2 -64 -1 -118 1 -120 2 -2 60 -4 128 -4 l123 0 0 120 0
120 -124 0 -125 0 -3 -116z m241 -4 l1 -100 -115 0 -115 0 0 100 0 100 114 0
114 0 1 -100z"/>
</g>
</svg>
